<svg xmlns="http://www.w3.org/2000/svg" version="1.1" xmlns:xlink="http://www.w3.org/1999/xlink" width="512" height="512" x="0" y="0" viewBox="0 0 64 64" style="enable-background:new 0 0 512 512" xml:space="preserve" class="hovered-paths"><g><path d="M62.12 29.03a15.043 15.043 0 0 0-11.36-8.35c-5.46-.7-14.93 2.95-19.35 10.22a22.816 22.816 0 0 1 11.39 8.42.995.995 0 0 1-.31 1.38 1.014 1.014 0 0 1-1.38-.31 20.145 20.145 0 0 0-10.64-7.72c0 .01-.01.01-.01.02a20.303 20.303 0 0 0-10.29-.21.01.01 0 0 0-.01-.01 29.292 29.292 0 0 0-5.09 1.71 1 1 0 1 1-.81-1.83 31.37 31.37 0 0 1 4.92-1.7 28.686 28.686 0 0 1-2.29-13.45l3.78.75-1.63-5.06a1.006 1.006 0 0 1 .41-1.15l2.42-1.58a1.001 1.001 0 0 1 1.09 1.68L21.18 13l1.36 4.24 2-1.2a5.975 5.975 0 0 0 2.89-5.81 16.737 16.737 0 0 0-3.68-7.89.984.984 0 0 0-.93-.32l-11 2a1.01 1.01 0 0 0-.56.31C.8 15.84.03 43.79 0 44.98a1.038 1.038 0 0 0 .21.63c.47.62 11.91 15.34 29.73 16.39H30a1.1 1.1 0 0 0 .18-.02 19.712 19.712 0 0 0 9.1-4.73 24.854 24.854 0 0 1-6.33-4.06 1.006 1.006 0 0 1-.05-1.41 1.018 1.018 0 0 1 1.42-.05 22.462 22.462 0 0 0 6.43 3.99l.01-.01c5.34 2.15 13.93 2.91 20.67-9.18a19.631 19.631 0 0 0 2.58-9.57 17.498 17.498 0 0 0-1.89-7.93zM14.51 51.64a.997.997 0 0 1-.83.45 1.023 1.023 0 0 1-.56-.17 47.649 47.649 0 0 1-8.82-7.65 1.002 1.002 0 1 1 1.5-1.33 45.16 45.16 0 0 0 8.43 7.32.997.997 0 0 1 .28 1.38zm43.6-19.46a1.03 1.03 0 0 1-.45.11.981.981 0 0 1-.89-.55 9.056 9.056 0 0 0-6.76-5.11.998.998 0 1 1 .25-1.98 11 11 0 0 1 8.29 6.19.998.998 0 0 1-.44 1.34z" fill="#ffffff" opacity="1" data-original="#000000" class="hovered-path"></path></g></svg>